<?xml version="1.0" standalone="no"?>
<!DOCTYPE svg PUBLIC "-//W3C//DTD SVG 20010904//EN"
 "http://www.w3.org/TR/2001/REC-SVG-20010904/DTD/svg10.dtd">
<svg version="1.0" xmlns="http://www.w3.org/2000/svg"
 width="500.000000pt" height="500.000000pt" viewBox="0 0 500.000000 500.000000"
 preserveAspectRatio="xMidYMid meet">
<metadata>
Created by potrace 1.14, written by Peter Selinger 2001-2017
</metadata>
<g transform="translate(0.000000,500.000000) scale(0.100000,-0.100000)"
fill="#000000" stroke="none">
<path d="M640 3799 l0 -36 68 -7 c135 -13 197 -50 223 -131 8 -28 13 -153 16
-412 l5 -373 173 0 174 0 3 383 c3 370 4 384 25 430 18 39 31 52 70 70 46 21
59 22 358 22 340 0 383 -5 470 -57 97 -57 147 -161 179 -368 9 -58 19 -120 22
-137 5 -31 7 -33 46 -33 l40 0 -6 133 c-6 118 4 386 20 507 l6 45 -946 0 -946
0 0 -36z"/>
<path d="M3420 3799 l0 -36 68 -7 c135 -13 196 -50 223 -134 8 -24 13 -164 16
-409 l5 -373 173 0 174 0 3 383 c3 367 4 384 25 429 27 60 74 85 191 102 l87
12 0 33 0 32 -483 2 -482 2 0 -36z"/>
<path d="M1900 3033 c0 -11 -19 -132 -26 -165 -6 -28 -5 -28 50 -28 l56 0 0
63 c0 34 3 79 6 100 l7 37 -47 0 c-25 0 -46 -3 -46 -7z"/>
<path d="M658 2590 c-2 -66 -1 -77 10 -63 14 19 17 143 3 143 -5 0 -11 -36
-13 -80z"/>
<path d="M785 2610 c0 -33 3 -60 8 -60 4 0 7 27 7 60 0 33 -3 60 -7 60 -5 0
-8 -27 -8 -60z"/>
<path d="M958 2610 c-2 -43 1 -60 10 -60 8 0 12 19 12 60 0 78 -17 78 -22 0z"/>
<path d="M1010 2641 c0 -16 -5 -31 -12 -33 -13 -5 18 -58 34 -58 6 0 3 12 -7
26 -12 19 -14 29 -6 37 14 14 14 44 1 52 -6 4 -10 -6 -10 -24z"/>
<path d="M1140 2655 c-18 -21 -15 -74 5 -94 14 -15 15 -13 4 17 -8 23 -8 41 0
62 11 34 9 37 -9 15z"/>
<path d="M1205 2610 c0 -46 3 -56 13 -48 6 6 12 27 12 48 0 21 -6 42 -12 48
-10 8 -13 -2 -13 -48z"/>
<path d="M1340 2667 c0 -18 49 -117 53 -109 7 11 -34 111 -45 112 -5 0 -8 -1
-8 -3z"/>
<path d="M1430 2610 c0 -33 4 -60 10 -60 6 0 10 27 10 60 0 33 -4 60 -10 60
-6 0 -10 -27 -10 -60z"/>
<path d="M1560 2610 c0 -33 4 -60 10 -60 6 0 10 27 10 60 0 33 -4 60 -10 60
-6 0 -10 -27 -10 -60z"/>
<path d="M1838 2610 c-2 -43 1 -60 10 -60 8 0 12 19 12 60 0 78 -17 78 -22 0z"/>
<path d="M2010 2610 c0 -33 4 -60 10 -60 6 0 10 27 10 60 0 33 -4 60 -10 60
-6 0 -10 -27 -10 -60z"/>
<path d="M2180 2651 c-15 -30 -12 -56 11 -82 l20 -24 -12 24 c-6 13 -9 41 -6
62 6 44 3 48 -13 20z"/>
<path d="M2255 2614 c0 -54 7 -68 19 -38 10 26 7 71 -6 82 -10 8 -13 -2 -13
-44z"/>
<path d="M2378 2610 c-2 -43 1 -60 10 -60 8 0 12 19 12 60 0 78 -17 78 -22 0z"/>
<path d="M2430 2641 c0 -16 -5 -31 -12 -33 -13 -5 18 -58 34 -58 6 0 3 12 -7
26 -12 19 -14 29 -6 37 14 14 14 44 1 52 -6 4 -10 -6 -10 -24z"/>
<path d="M2585 2613 c28 -62 35 -73 35 -54 0 20 -42 111 -51 111 -5 0 3 -26
16 -57z"/>
<path d="M2658 2610 c-2 -36 1 -60 7 -60 6 0 10 27 10 60 0 78 -12 78 -17 0z"/>
<path d="M2892 2658 c-16 -16 -15 -70 1 -91 10 -15 12 -8 12 43 0 33 0 60 0
60 -1 0 -6 -5 -13 -12z"/>
<path d="M2950 2660 c0 -5 5 -10 11 -10 5 0 7 5 4 10 -3 6 -8 10 -11 10 -2 0
-4 -4 -4 -10z"/>
<path d="M3060 2651 c-11 -22 -13 -52 -4 -75 12 -31 19 -16 19 39 0 30 -1 55
-2 55 -1 0 -7 -9 -13 -19z"/>
<path d="M3135 2615 c0 -47 2 -53 13 -38 6 9 12 26 12 38 0 12 -6 29 -12 38
-11 15 -13 9 -13 -38z"/>
<path d="M3255 2610 c0 -33 4 -60 10 -60 6 0 9 24 7 60 -5 78 -17 78 -17 0z"/>
<path d="M3307 2650 c3 -11 0 -27 -7 -35 -10 -12 -9 -20 4 -40 9 -14 21 -25
26 -25 6 0 3 11 -5 24 -13 20 -14 28 -4 44 13 20 7 52 -10 52 -5 0 -7 -9 -4
-20z"/>
<path d="M3435 2610 c0 -33 3 -60 8 -60 4 0 7 27 7 60 0 33 -3 60 -7 60 -5 0
-8 -27 -8 -60z"/>
<path d="M3498 2658 c15 -15 16 -62 1 -91 -10 -21 -9 -21 10 2 12 13 21 34 21
46 0 22 -23 55 -38 55 -3 0 -1 -5 6 -12z"/>
<path d="M3628 2590 c-2 -66 -1 -77 10 -63 14 19 17 143 3 143 -5 0 -11 -36
-13 -80z"/>
<path d="M3750 2651 c-11 -22 -13 -52 -4 -75 12 -31 19 -16 19 39 0 30 -1 55
-2 55 -1 0 -7 -9 -13 -19z"/>
<path d="M3825 2615 c0 -47 2 -53 13 -38 6 9 12 26 12 38 0 12 -6 29 -12 38
-11 15 -13 9 -13 -38z"/>
<path d="M3968 2610 c-2 -43 1 -60 10 -60 8 0 12 19 12 60 0 78 -17 78 -22 0z"/>
<path d="M4117 2663 c-16 -16 -5 -44 24 -59 23 -11 30 -21 26 -35 -3 -10 -1
-17 4 -13 19 11 8 43 -22 64 -17 13 -28 28 -25 36 6 15 3 18 -7 7z"/>
<path d="M4160 2660 c0 -5 5 -10 11 -10 5 0 7 5 4 10 -3 6 -8 10 -11 10 -2 0
-4 -4 -4 -10z"/>
<path d="M4280 2610 c0 -33 4 -60 10 -60 6 0 10 27 10 60 0 33 -4 60 -10 60
-6 0 -10 -27 -10 -60z"/>
<path d="M4110 2571 c0 -6 4 -13 10 -16 6 -3 7 1 4 9 -7 18 -14 21 -14 7z"/>
<path d="M950 1948 c-1 -458 -7 -569 -38 -622 -23 -40 -88 -73 -160 -81 -110
-12 -112 -13 -112 -49 l0 -32 981 0 981 1 -9 130 c-4 72 -8 239 -8 373 l0 242
-41 0 -41 0 -12 -97 c-17 -129 -54 -274 -87 -337 -35 -69 -108 -142 -172 -172
-105 -50 -172 -58 -487 -58 -321 -1 -344 2 -393 59 -47 53 -52 110 -52 623 l0
462 -175 0 -175 0 0 -442z"/>
<path d="M1825 2338 c39 -60 59 -130 76 -270 l11 -98 46 0 45 0 -6 58 c-4 31
-9 126 -13 210 l-7 152 -93 0 -94 0 35 -52z"/>
<path d="M3727 1763 c-5 -643 -8 -697 -48 -857 -51 -200 -165 -327 -334 -371
-33 -8 -76 -15 -97 -15 -37 0 -38 -1 -38 -36 l0 -37 98 6 c297 17 559 211 670
497 74 189 101 501 102 1148 l0 292 -174 0 -174 0 -5 -627z"/>
</g>
</svg>
